<svg xmlns="http://www.w3.org/2000/svg" viewBox="0 0 512 512" width="512" height="512">
  <rect width="512" height="512" fill="#A52946" rx="100"/>
  <g transform="translate(256, 256)">
    <path d="M -160 -20 C -130 -90, -50 -100, 30 -85 C 80 -75, 120 -50, 150 -20 C 120 10, 80 35, 30 45 C -50 60, -130 50, -160 -20 Z" fill="white" opacity="0.4"/>
    <path d="M 150 -20 L 200 -70 L 200 30 Z" fill="white" opacity="0.4"/>
  </g>
  <g transform="translate(256, 256) scale(0.95)">
    <path d="M -130 30 C -100 -40, -20 -60, 50 -50 C 100 -42, 130 -25, 150 0 C 130 25, 100 42, 50 50 C -20 60, -100 40, -130 30 Z" fill="white"/>
    <path d="M 150 0 L 200 -45 L 185 -5 L 200 45 Z" fill="white"/>
    <path d="M -10 -55 L 30 -75 L 40 -50 Z" fill="white"/>
    <circle cx="80" cy="-15" r="6" fill="#A52946"/>
  </g>
</svg>
